<svg width="122" height="122" viewBox="0 0 122 122" fill="none" xmlns="http://www.w3.org/2000/svg">
<g clip-path="url(#clip0_1_9984)">
<path fill-rule="evenodd" clip-rule="evenodd" d="M44.7738 73.5759C45.6229 75.152 45.8111 77.0007 45.2971 78.7156C44.7831 80.4304 43.6089 81.8708 42.0329 82.7199C40.4569 83.569 38.6081 83.7573 36.8932 83.2433C35.1784 82.7293 33.738 81.5551 32.8889 79.9791C32.0398 78.403 31.8515 76.5542 32.3656 74.8394C32.8796 73.1246 34.0537 71.6842 35.6298 70.8351C37.2058 69.986 39.0546 69.7977 40.7694 70.3117C42.4843 70.8257 43.9247 71.9999 44.7738 73.5759ZM43.6681 50.1767C44.7295 52.1468 44.9648 54.4578 44.3223 56.6013C43.6798 58.7448 42.2121 60.5454 40.242 61.6067C38.272 62.6681 35.961 62.9034 33.8175 62.2609C31.6739 61.6184 29.8734 60.1507 28.812 58.1807C27.7506 56.2106 27.5153 53.8996 28.1578 51.7561C28.8004 49.6126 30.2681 47.812 32.2381 46.7507C34.2081 45.6893 36.5191 45.454 38.6627 46.0965C40.8062 46.739 42.6067 48.2067 43.6681 50.1767ZM60.7164 85.3779C61.5655 86.9539 61.7537 88.8027 61.2397 90.5175C60.7257 92.2323 59.5515 93.6727 57.9755 94.5219C56.3995 95.371 54.5507 95.5592 52.8359 95.0452C51.121 94.5312 49.6806 93.357 48.8315 91.781C47.9824 90.205 47.7941 88.3562 48.3082 86.6413C48.8222 84.9265 49.9963 83.4861 51.5724 82.637C53.1484 81.7879 54.9972 81.5996 56.712 82.1136C58.4269 82.6277 59.8673 83.8018 60.7164 85.3779ZM76.6303 85.1652C77.2672 86.3472 77.4083 87.7338 77.0228 89.0199C76.6373 90.3061 75.7567 91.3864 74.5747 92.0232C73.3927 92.66 72.0061 92.8012 70.7199 92.4157C69.4338 92.0302 68.3535 91.1496 67.7167 89.9676C67.0798 88.7855 66.9387 87.3989 67.3242 86.1128C67.7097 84.8267 68.5903 83.7464 69.7723 83.1096C70.9544 82.4727 72.3409 82.3315 73.6271 82.717C74.9132 83.1026 75.9935 83.9832 76.6303 85.1652ZM60.8793 32.3128C61.9406 34.2828 62.176 36.5938 61.5334 38.7373C60.8909 40.8809 59.4232 42.6814 57.4532 43.7428C55.4831 44.8041 53.1722 45.0395 51.0286 44.397C48.8851 43.7544 47.0846 42.2867 46.0232 40.3167C44.9618 38.3466 44.7265 36.0357 45.369 33.8921C46.0115 31.7486 47.4792 29.9481 49.4493 28.8867C51.4193 27.8253 53.7303 27.59 55.8738 28.2325C58.0174 28.875 59.8179 30.3427 60.8793 32.3128ZM87.705 76.4613C88.1296 77.2493 88.2237 78.1737 87.9667 79.0312C87.7097 79.8886 87.1226 80.6088 86.3346 81.0333C85.5466 81.4579 84.6222 81.552 83.7647 81.295C82.9073 81.038 82.1871 80.4509 81.7626 79.6629C81.338 78.8749 81.2439 77.9505 81.5009 77.0931C81.7579 76.2357 82.345 75.5155 83.133 75.0909C83.921 74.6663 84.8454 74.5722 85.7028 74.8292C86.5602 75.0862 87.2804 75.6733 87.705 76.4613ZM87.5109 39.0497C88.7845 41.4138 89.0669 44.187 88.2959 46.7592C87.5249 49.3315 85.7636 51.4921 83.3996 52.7657C81.0355 54.0394 78.2623 54.3218 75.6901 53.5508C73.1178 52.7798 70.9572 51.0185 69.6836 48.6544C68.4099 46.2904 68.1275 43.5172 68.8985 40.945C69.6696 38.3727 71.4308 36.2121 73.7949 34.9385C76.1589 33.6648 78.9321 33.3824 81.5043 34.1534C84.0766 34.9244 86.2372 36.6857 87.5109 39.0497ZM90.6031 66.1362C90.8154 66.5302 90.8624 66.9924 90.7339 67.4211C90.6054 67.8498 90.3119 68.2099 89.9179 68.4222C89.5239 68.6345 89.0617 68.6816 88.633 68.5531C88.2042 68.4245 87.8441 68.131 87.6319 67.737C87.4196 67.343 87.3725 66.8808 87.501 66.4521C87.6295 66.0234 87.9231 65.6633 88.3171 65.451C88.7111 65.2387 89.1733 65.1917 89.602 65.3202C90.0307 65.4487 90.3908 65.7422 90.6031 66.1362Z" fill="url(#paint0_linear_1_9984)"/>
</g>
<defs>
<linearGradient id="paint0_linear_1_9984" x1="47.296" y1="106.72" x2="29.7018" y2="24.9649" gradientUnits="userSpaceOnUse">
<stop stop-color="#D6B68C"/>
<stop offset="1" stop-color="#744E1C"/>
</linearGradient>
<clipPath id="clip0_1_9984">
<rect width="90" height="90" fill="white" transform="translate(79.2725 0.0400391) rotate(61.6858)"/>
</clipPath>
</defs>
</svg>
