<svg width="333" height="333" viewBox="0 0 333 333" fill="none" xmlns="http://www.w3.org/2000/svg">
<g filter="url(#filter0_d_1_9987)">
<path d="M233 146.5C233 183.227 203.227 213 166.5 213C129.773 213 100 183.227 100 146.5C100 109.773 129.773 80 166.5 80C203.227 80 233 109.773 233 146.5Z" fill="#BC9A65"/>
<path d="M184.206 119.9L175.353 145.007L171.417 119.9H152.764L149.013 132.291C148.101 135.333 147.358 138.068 146.817 140.512C146.259 142.956 145.854 145.246 145.584 147.4H145.279C144.942 143.965 144.012 139.589 142.492 134.274C142.255 133.488 142.086 132.889 141.968 132.496L138.386 119.9H119.683L111.083 170.866H128.84L131.037 150.681C131.172 149.126 131.307 147.588 131.425 146.05C131.544 144.511 131.679 142.956 131.78 141.384C131.983 142.854 132.27 144.392 132.642 146.033C133.013 147.673 133.487 149.417 134.061 151.28L139.839 170.883H150.618L156.397 151.28C156.954 149.434 157.41 147.673 157.799 146.033C158.171 144.392 158.475 142.854 158.677 141.384C158.762 142.939 158.88 144.494 159.015 146.033C159.151 147.571 159.286 149.126 159.421 150.681L161.617 170.866H188.092V167.568C192.772 167.909 193.262 167.944 197.317 167.533V158.253C193.127 158.817 189.359 158.475 188.025 158.321V158.15C188.075 155.33 189.224 151.416 189.731 149.741C190.948 146.272 191.573 142.837 191.725 140.392C191.725 140.392 196.624 140.478 196.607 140.341C196.574 139.948 196.455 137.948 196.472 137.675L191.826 137.624C191.826 137.282 191.826 137.094 191.826 137.094C191.066 136.393 191.573 133.009 192.096 132.53C192.637 132.052 192.755 132.137 194.107 132.137C194.107 132.137 195.56 132.035 196.084 132.513C196.624 132.992 197.064 136.393 196.455 137.094C196.455 137.094 196.371 142.854 198.145 148.716C198.145 148.716 198.567 150.049 198.618 150.203C198.618 150.203 198.618 150.203 198.584 150.203C199.159 152.151 200.071 155.638 200.105 158.133V158.817L200.037 170.866H221.917L204.362 119.9H184.189H184.206Z" fill="#550038"/>
</g>
<defs>
<filter id="filter0_d_1_9987" x="0" y="0" width="333" height="333" filterUnits="userSpaceOnUse" color-interpolation-filters="sRGB">
<feFlood flood-opacity="0" result="BackgroundImageFix"/>
<feColorMatrix in="SourceAlpha" type="matrix" values="0 0 0 0 0 0 0 0 0 0 0 0 0 0 0 0 0 0 127 0" result="hardAlpha"/>
<feOffset dy="20"/>
<feGaussianBlur stdDeviation="50"/>
<feComposite in2="hardAlpha" operator="out"/>
<feColorMatrix type="matrix" values="0 0 0 0 0.0156863 0 0 0 0 0.0235294 0 0 0 0 0.0588235 0 0 0 0.08 0"/>
<feBlend mode="normal" in2="BackgroundImageFix" result="effect1_dropShadow_1_9987"/>
<feBlend mode="normal" in="SourceGraphic" in2="effect1_dropShadow_1_9987" result="shape"/>
</filter>
</defs>
</svg>
